<svg class="svg-icon" style="width: 1em; height: 1em;vertical-align: middle;fill: currentColor;overflow: hidden;" viewBox="0 0 1024 1024" version="1.1" xmlns="http://www.w3.org/2000/svg"><path d="M654.4 63.9H371.1c-39.8-2.6-74.2 27.6-76.7 67.4-0.2 2.5-0.2 5.1-0.1 7.6v746.2c-1.6 39.9 29.3 73.5 69.2 75.1 2.5 0.1 5.1 0.1 7.6-0.1h283.2c39.7 1.9 73.4-28.8 75.3-68.5 0.1-2.2 0.1-4.4 0-6.6V138.9c1.9-39.6-28.6-73.2-68.2-75-2.3-0.2-4.7-0.2-7 0z m-141.9 845c-14.1 0-25.6-11.5-25.6-25.6s11.5-25.6 25.6-25.6c14.1 0 25.6 11.5 25.6 25.6s-11.5 25.6-25.6 25.6z m191.6-76.8H319.9V191.9H704v640.2z m-179.3-704c0 7.1-5.7 12.8-12.8 12.8-7.1 0-12.8-5.7-12.8-12.8 0-7.1 5.7-12.8 12.8-12.8 7.1 0 12.8 5.8 12.8 12.8z"  fill="#f5f5f7"/></svg>